<svg id="Capa_1" data-name="Capa 1" xmlns="http://www.w3.org/2000/svg" width="200" height="100" viewBox="0 0 200 100">
  <path d="M15.5,70.5c.82-1.67-.75-9.08-2.5-16.5a56.18,56.18,0,0,1-2-21,20.52,20.52,0,0,1,5-12,24.06,24.06,0,0,1,13-6v3.07c4.66-.31,7.27,2.51,8.5,7.43.24,2.49.88,3.88,2,4,1,5.52-2.91,7.83-10,8,.48,3.72,5.85,11.15,11,16C46.49,59.14,47,71,45,75,42,85,13,89,4,75c-5-8-2.11-15.7,8.5-17.5C19.19,56,28.77,64.08,39,76a16.59,16.59,0,0,0,13.5,6.5c11,0,10-14,2-20" fill="none" stroke="#000" stroke-miterlimit="10" stroke-width="2"/>
  <text transform="translate(60.46 46.46)" font-size="23" font-family="RozhaOne-Regular, Rozha One">Asesoría CAT</text>
  <text transform="translate(61 58.87) scale(1.04 1)" font-size="12" font-family="RozhaOne-Regular, Rozha One">Contabilidad Moderna</text>
</svg>
